<svg width="57" height="57" viewBox="0 0 57 57" fill="none" xmlns="http://www.w3.org/2000/svg">
<g clip-path="url(#clip0_1_232)">
<path d="M56.5938 29.6406C56.5938 14.4528 44.7816 1.64062 29.5938 1.64062C14.4059 1.64062 1.59375 14.4528 1.59375 29.6406C1.59375 44.8285 14.4059 56.6406 29.5938 56.6406C44.7816 56.6406 56.5938 44.8285 56.5938 29.6406Z" fill="#101111" stroke="white"/>
<path d="M26.5938 29.6406L25.5938 27.6406L30.5938 23.6406H22.5938V21.6406H33.5938V23.6406L28.5938 27.6406C29.8109 27.6406 31.6694 27.8574 32.5938 28.6406C33.5336 29.4237 33.5938 30.24 33.5938 31.6406C33.5938 32.9357 33.5643 34.7219 32.5938 35.6406C31.6232 36.5593 30.2731 36.6406 28.5938 36.6406C26.9454 36.6406 25.5952 36.5291 24.5938 35.6406C23.6078 34.737 22.6708 32.9207 22.5938 31.6406H24.5938C24.64 32.5894 24.9775 33.0533 25.5938 33.6406C26.2254 34.2128 27.6694 34.6406 28.5938 34.6406C29.5798 34.6406 30.0391 34.1526 30.5938 33.6406C31.1639 33.1135 31.5938 32.4087 31.5938 31.6406C31.5938 30.752 31.1946 30.1075 30.5938 29.6406C29.9929 29.1737 29.4257 29.6406 28.5938 29.6406C28.147 29.6406 27.0252 29.4899 26.5938 29.6406Z" fill="white"/>
</g>
<defs>
<clipPath id="clip0_1_232">
<rect width="56" height="56" fill="white" transform="translate(0.59375 0.640625)"/>
</clipPath>
</defs>
</svg>
