<svg width="57" height="57" viewBox="0 0 57 57" fill="none" xmlns="http://www.w3.org/2000/svg">
<g clip-path="url(#clip0_1_223)">
<path d="M56.5938 29.6406C56.5938 14.4528 44.7816 1.64062 29.5938 1.64062C14.4059 1.64062 1.59375 14.4528 1.59375 29.6406C1.59375 44.8285 14.4059 56.6406 29.5938 56.6406C44.7816 56.6406 56.5938 44.8285 56.5938 29.6406Z" fill="#101111" stroke="white"/>
<path d="M26.599 27.6406L23.6009 26.6406C23.5848 26.5049 23.6009 26.8971 23.6009 26.6406C23.6009 25.3284 24.615 23.5606 25.5996 22.6406C26.5844 21.7054 27.9505 21.6406 29.597 21.6406C31.2274 21.6406 31.6427 21.7659 32.5951 22.6406C33.5475 23.5004 34.5938 25.3737 34.5938 26.6406C34.5938 28.4958 33.5651 29.4792 31.5957 30.6406L28.5977 32.6406C27.4838 33.3043 26.7605 33.9317 26.599 34.6406H34.5938V36.6406H23.6009C23.6332 35.4039 24.0354 34.5758 24.6003 33.6406C25.1814 32.7054 26.2908 31.4249 27.5983 30.6406L29.597 29.6406C31.0337 28.7809 32.5951 27.8171 32.5951 26.6406C32.5951 25.9166 32.1123 25.1384 31.5957 24.6406C31.0792 24.1429 30.5333 23.6406 29.597 23.6406C28.6124 23.6406 27.1155 24.0826 26.599 24.6406C26.0825 25.1987 26.599 25.7507 26.599 26.6406C26.599 26.7764 26.5668 27.3389 26.599 27.6406Z" fill="white"/>
</g>
<defs>
<clipPath id="clip0_1_223">
<rect width="56" height="56" fill="white" transform="translate(0.59375 0.640625)"/>
</clipPath>
</defs>
</svg>
